<svg height="64" viewBox="-20.5 -20.5 64 64" width="64" xmlns="http://www.w3.org/2000/svg"><g fill="#29f1fb" stroke-width=".09749" transform="matrix(1.7842624 0 0 1.7842624 -1.765242 -5.450499)"><path d="m7.8615815-3.6607951c2.2910235 0 4.5820465-.011699 6.8720945 0 4.387066.027297 8.412443 2.82722017 9.944016 6.9140156.66001 1.7645754.80332 3.5905696.615164 5.4653091-.275898 2.7531274-1.097741 5.3083494-2.654662 7.5983974-2.402162 3.535001-5.788002 5.499431-9.981062 6.153591-1.421409.221303-2.8476933.194981-4.2759269.194981-.5927413 0-.909585-.271023-.9446815-.7614-.038021-.525473.292471-.929083.8774131-.964179.647336-.03997 1.2995464-.0068 1.9498073-.02437 3.947384-.107239 7.365396-1.46723 10.072703-4.387065 1.897162-2.047298 2.858417-4.541101 3.184035-7.289354.226177-1.9069112.201805-3.8021236-.551796-5.6086198-1.156235-2.76385142-3.227905-4.45823371-6.080473-5.2440059-1.10749-.3051448-2.242278-.3626641-3.378041-.3694885-4.2398549-.025347-8.4816601-.00975-12.72054047-.010724-.17840734 0-.35876449.00682-.53619693-.00877a.85304056.85304056 0 0 1 -.77309847-.8013707.83256759.83256759 0 0 1 .68243245-.8315927 3.2863997 3.2863997 0 0 1 .5849421-.028272h7.11679552z"/><path d="m3.5193613 16.617198h-7.6042473a3.6822105 3.6822105 0 0 1 -.4874517-.01072c-.4396815-.05947-.7165541-.311969-.7594498-.756525-.042896-.444556.1657335-.748726.5849421-.904711.2661486-.09749.544971-.07702.8198938-.07702 5.0022299 0 10.0054346.0078 15.0076646-.0088 1.754826-.0058 3.269826-.65611 4.473832-1.942983 1.032423-1.103591 1.573494-2.437259 1.734353-3.9386101.126738-1.1776834-.04095-2.2608012-.772123-3.2220561-.81307-1.0723938-1.911786-1.6105406-3.23278-1.61639-4.7263324-.020473-9.4565642-.0078-14.17899672-.014623-.50207528 0-1.00512548-.040946-1.50525098-.087741-.4318823-.0399469-.6707336-.3002461-.6999807-.7350531-.0321719-.4738031.2105791-.8150193.6405116-.8978861a2.3163707 2.3163707 0 0 1 .4348069-.020473h15.2084949c2.555222.00487 4.764353 1.5500966 5.569623 3.9659075.571294 1.7148552.367539 3.4433591-.272973 5.1055699-1.230328 3.190859-4.126766 5.15334-7.554527 5.162114-2.4684554.0068-4.937886 0-7.4063417 0zm-11.3400775-12.5762554c-.5849421 0-1.1698842.0078-1.7548263 0-.4874515-.00877-.8618145-.3295174-.9173845-.7662742-.05557-.4367567.218379-.8120946.7458015-.919334a4.6093437 4.6093437 0 0 1 .8715637-.057519c.7955213-.00682 1.5920174-.00877 2.3875387 0a3.1060426 3.1060426 0 0 1 .7214286.083842c.4299324.1091892.6648842.4757529.6141892.9212838s-.3197684.7136294-.7701738.7282529c-.6327123.021448-1.2673745.00585-1.9000869.00585zm10.6703188 18.6206564c-.5517954 0-1.1035907.0097-1.6573359 0-.52449811-.0117-.87741317-.309044-.93103287-.747751a.87741315.87741315 0 0 1 .79064677-.95053 23.03307 23.03307 0 0 1 3.5466989-.0049.81891894.81891894 0 0 1 .7799228.899836c-.036071.487452-.3792375.785772-.9212838.80722h-1.6076159z"/></g></svg>