<?xml version="1.0" encoding="utf-8"?>
<!-- Generator: Adobe Illustrator 16.0.0, SVG Export Plug-In . SVG Version: 6.00 Build 0)  -->
<!DOCTYPE svg PUBLIC "-//W3C//DTD SVG 1.1//EN" "http://www.w3.org/Graphics/SVG/1.1/DTD/svg11.dtd">
<svg version="1.1" id="Layer_1" xmlns="http://www.w3.org/2000/svg" xmlns:xlink="http://www.w3.org/1999/xlink" x="0px" y="0px"
	 width="360px" height="360px" viewBox="0 0 360 360" enable-background="new 0 0 360 360" xml:space="preserve">
<path d="M305.056,157.465c0,0-45.497-18.401-49.727-23.467c0,0-3.911-2.979-7.822-11.732c-5.339-15.645-13.127-12.726-14.589-19.244
	c-1.055,2.979,0.808,6.953,0.808,6.953c-8.118-12.476-10.2-9.805-18.811-17.383c-0.683,4.283-0.046,5.682-0.046,5.682
	c-8.328-9.893-12.105-8.725-15.319-12.883c0.912,2.721,0.919,8.555,4.749,10.802c0,0-8.193-2.979-13.036-7.636
	c-5.079-4.446-17.577-4.222-20.619-9.127c0.857,3.209,1.836,8.912,7.769,11.92c-9.498,0.357-17.499-10.14-24.211-8.939
	c-13.037,0.745-20.725-3.574-20.486-3.539c1.303,5.029,8.484,9.444,13.223,13.225c0,0-5.135-0.487-14.475-4.59
	c-6.686-2.938-17.559,0.119-20.91,1.795c0,0,11.795-0.931,19.306,4.408c-1.322-0.035-10.306-0.869-19.306,4.159
	c0,0,8.754-1.668,18.375,1.179c7.522,2.228,15.604,5.858,24.941,6.002c-5.199-4.25-6.658-7.563-6.504-7.49
	c21.499,9.998,23.388,10.231,37.496,12.621c-2.514,2.265-16.575,10.316-36.596,8.826c0,0,10.347,3.957,15.953,5.074
	c0,0-4.604,2.249-12.321,3.773c0,0,6.166,1.462,10.429,0.558c0,0-8.753,6.396-17.506,5.65c1.66,0.587,3.404,1.575,7.077,1.427
	c0,0-0.696,4.58-8.625,9.097c0,0,6.11,0.339,9.88-0.458c-2.348,3.733-6.76,15.469-5.539,24.326c0,0,1.18-8.381,7.141-11.175
	c0,0-4.968,8.133,2.488,22.168c0,0,4.339,7.569,17.487,16.524c-3.649-11.377-1.042-14.885-1.042-14.885
	c0.745,9.84,7.727,19.145,10.461,22.566c1.545,1.934,4.686,5.339,5.948,8.635c-0.021-7.579,1.47-11.242,1.47-11.242
	c2.979,30.823,13.877,44.075,29.984,43.58c0,0-10.352-1.978-13.618-20.029c0.305,0.675,1.814,2.215,8.963,4.013
	c0,0-11.609-8.753-7.513-24.769c0,0,0.187,5.772,6.953,10.181c-0.654-0.089-4.025-10.662-0.124-14.496
	c2.98-3.911,7.574-4.253,9.437-9.095c0,0,0.931,4.283-1.49,7.449c1.616-1.732,4.704-0.855,9.312-8.195
	c4.842-5.586,18.252-6.703,25.7-4.655c7.45,2.049,21.169,7.015,24.708,5.153c3.308-1.922,4.345-5.904,8.07-9.623
	c3.725-3.538,15.272-13.409,15.458-17.506C308.595,158.955,305.056,157.465,305.056,157.465 M235.712,137.352
	c-6.95,0.539-12.587-5.562-10.926-12.106c-0.058,1.045,5.058,4.202,11.174,6.705c9.117,3.462,10.215,5.211,16.222,5.693
	C248.931,137.449,240.296,136.995,235.712,137.352"/>
</svg>
