<?xml version="1.0" encoding="utf-8"?>
<!-- Generator: Adobe Illustrator 16.0.0, SVG Export Plug-In . SVG Version: 6.00 Build 0)  -->
<!DOCTYPE svg PUBLIC "-//W3C//DTD SVG 1.1//EN" "http://www.w3.org/Graphics/SVG/1.1/DTD/svg11.dtd">
<svg version="1.1" id="Layer_1" xmlns="http://www.w3.org/2000/svg" xmlns:xlink="http://www.w3.org/1999/xlink" x="0px" y="0px"
	 width="360px" height="360px" viewBox="0 0 360 360" enable-background="new 0 0 360 360" xml:space="preserve">
<path d="M147.745,121.745c-4.414-0.995-8.729-1.071-14.03-4.174c0,0,1.908,3.687,5.524,6.185c0,0-2.482,0.744-7.946-1.986
	c-5.463-2.732-14.805-5.156-31.442-0.236c0,0,11.7,0,20.444,5.447c7.459,4.646,15.281,7.154,21.506,7.074
	c-2.049-1.219-3.131-1.965-4.051-3.842c0,0,7.912,2.182,14.277,0.495c0,0-7.176-3.243-8.246-4.435c0,0,5.889-0.354,12.24-1.317
	C156.022,124.956,149.563,122.155,147.745,121.745"/>
</svg>
