<?xml version="1.0" encoding="utf-8"?>
<!-- Generator: Adobe Illustrator 16.0.0, SVG Export Plug-In . SVG Version: 6.00 Build 0)  -->
<!DOCTYPE svg PUBLIC "-//W3C//DTD SVG 1.1//EN" "http://www.w3.org/Graphics/SVG/1.1/DTD/svg11.dtd">
<svg version="1.1" id="Layer_1" xmlns="http://www.w3.org/2000/svg" xmlns:xlink="http://www.w3.org/1999/xlink" x="0px" y="0px"
	 width="360px" height="360px" viewBox="0 0 360 360" enable-background="new 0 0 360 360" xml:space="preserve">
<path d="M212.681,249.281c-4.742-2.52-13.25-11.199-17.748-17.316c-6.189-8.414-13.719-9.912-20.445-12.239
	c0.795,0.776,4.881,4.104,12.025,10.258c0,0-1.893,0.146-14.361,0.86c-15.846,0.908-29.619-6.938-31.48-11.967
	c0,0,0.824,4.57,1.238,5.82c0,0-15.334-5.4-18.561-26.445c0,0-0.191,0.451-0.479,1.272c-1.803,5.163-7.419,24.923,6.562,38.583
	c0,0-1.863-7.45-1.119-11.733c0,0,6.705,16.39,25.516,17.88c18.664,1.361,31.475-1.119,44.139,9.217
	c7.133,5.822,16.018,7.172,23.094,6.427c-11.078-3.88-17.602-11.052-17.602-11.052S206.349,248.723,212.681,249.281"/>
</svg>
