<?xml version="1.0" encoding="utf-8"?>
<!-- Generator: Adobe Illustrator 16.0.0, SVG Export Plug-In . SVG Version: 6.00 Build 0)  -->
<!DOCTYPE svg PUBLIC "-//W3C//DTD SVG 1.1//EN" "http://www.w3.org/Graphics/SVG/1.1/DTD/svg11.dtd">
<svg version="1.1" id="Layer_1" xmlns="http://www.w3.org/2000/svg" xmlns:xlink="http://www.w3.org/1999/xlink" x="0px" y="0px"
	 width="360px" height="360px" viewBox="0 0 360 360" enable-background="new 0 0 360 360" xml:space="preserve">
<path d="M134.163,146.01c0,0,9.691-3.536,12.168-7.356c0,0-14.793-1.065-26.883-8.56c-12.099-7.499-25.307-6.524-36.297,1.205
	c0,0-6.674,3.725-13.131,9.684c0,0,19.557-5.557,31.724,0.404c12.166,5.96,17.806,20.761,39.657,18.277
	c0,0-6.135,8.789-18.055,13.756c0,0,13.742,0.086,19.619-6.705c0,0-0.498,5.959,0.992,10.927c0,0,0.062-12.913,2.111-20.363
	c2.049-7.448,2.596-9.642,2.596-9.642S138.136,148.246,134.163,146.01"/>
</svg>
