<?xml version="1.0" encoding="utf-8"?>
<!-- Generator: Adobe Illustrator 16.0.0, SVG Export Plug-In . SVG Version: 6.00 Build 0)  -->
<!DOCTYPE svg PUBLIC "-//W3C//DTD SVG 1.1//EN" "http://www.w3.org/Graphics/SVG/1.1/DTD/svg11.dtd">
<svg version="1.1" id="Layer_1" xmlns="http://www.w3.org/2000/svg" xmlns:xlink="http://www.w3.org/1999/xlink" x="0px" y="0px"
	 width="360px" height="360px" viewBox="0 0 360 360" enable-background="new 0 0 360 360" xml:space="preserve">
<path d="M110.994,172.457c6.961-0.703,12.321,0.141,22.722-9.335c0,0-14.182,0.203-23.282-8.823
	c-13.328-13.223-27.562-12.385-41.53-7.821c0,0,14.34,0.812,20.486,6.145c0,0-13.129-0.465-25.391,9.686
	c0,0,16.277-3.423,23.9-1.304c6.704,1.862,9.116,3.411,13.597,7.201c0,0-15.913-4.838-31.476,4.719
	c-5.309,3.259-11.547,9.684-11.547,9.684s8.662-4.562,23.279-3.911c6.256,0.279,20.067,3.731,40.602-3.166
	C116.586,174.617,113.436,174.389,110.994,172.457"/>
</svg>
