<?xml version="1.0" encoding="utf-8"?>
<!-- Generator: Adobe Illustrator 16.0.0, SVG Export Plug-In . SVG Version: 6.00 Build 0)  -->
<!DOCTYPE svg PUBLIC "-//W3C//DTD SVG 1.1//EN" "http://www.w3.org/Graphics/SVG/1.1/DTD/svg11.dtd">
<svg version="1.1" id="Layer_1" xmlns="http://www.w3.org/2000/svg" xmlns:xlink="http://www.w3.org/1999/xlink" x="0px" y="0px"
	 width="360px" height="360px" viewBox="0 0 360 360" enable-background="new 0 0 360 360" xml:space="preserve">
<path d="M117.113,92.527c-25.326-2.192-35.483,16.172-35.483,16.172c6.582-4.747,20.362-4.81,20.362-4.81
	c-5.384,1.699-10.026,8.483-13.409,12.351c-9.126,10.433-24.584,11.984-24.584,11.984c19.369,2.235,25.577-4.718,38.49-11.984
	c12.913-7.268,27.066,0,27.066,0l5.463-3.162c-6.832-2.399-12.971-5.387-16.633-12.062c-3.971-1.64-14.006-0.706-14.006-0.706
	C109.842,93.357,117.113,92.527,117.113,92.527"/>
</svg>
