<?xml version="1.0" encoding="utf-8"?>
<!-- Generator: Adobe Illustrator 16.0.0, SVG Export Plug-In . SVG Version: 6.00 Build 0)  -->
<!DOCTYPE svg PUBLIC "-//W3C//DTD SVG 1.1//EN" "http://www.w3.org/Graphics/SVG/1.1/DTD/svg11.dtd">
<svg version="1.1" id="Layer_1" xmlns="http://www.w3.org/2000/svg" xmlns:xlink="http://www.w3.org/1999/xlink" x="0px" y="0px"
	 width="360px" height="360px" viewBox="0 0 360 360" enable-background="new 0 0 360 360" xml:space="preserve">
<path d="M177.481,201.697c0,0-26.58-13.578-26.27-31.209c0,0-5.234,5.022-5.59,18.252c0,0-5.76-10.045-5.574-16.004
	c0,0-12.701,7.623-10.838,25.13c1.322,12.42,7.539,18.713,8.975,19.755c0,0-4.469-11.361-1.49-20.487
	c0,0-2.793,14.713,10.988,22.908c13.781,8.194,20.486,6.892,29.613,7.077c0,0-10.328-6.574-17.135-15.272l-1.227-1.86
	c5.139,4.466,18.361,7.076,18.361,7.076c10.703,2.451,14.721,5.773,18.697,12.506C194.503,222.042,190.845,211.681,177.481,201.697"
	/>
</svg>
