<?xml version="1.0" encoding="utf-8"?>
<!-- Generator: Adobe Illustrator 22.1.0, SVG Export Plug-In . SVG Version: 6.00 Build 0)  -->
<svg version="1.1" xmlns="http://www.w3.org/2000/svg" xmlns:xlink="http://www.w3.org/1999/xlink" x="0px" y="0px"
	 viewBox="0 0 348.8 319.7" style="enable-background:new 0 0 348.8 319.7;" xml:space="preserve">
<style type="text/css">
	.st0{fill:#1B1C1C;}
	.st1{fill:#F1F2F2;}
	.st2{fill:url(#SVGID_1_);}
	.st3{fill:#939598;}
	.st4{fill:#BE1E2D;}
	.st5{fill:#414042;}
	.st6{fill:#D1D3D4;}
	.st7{fill:#10425E;}
</style>
<g id="background">
</g>
<g id="Layer_2">
	<g>
		<path d="M142.2,101.6c-4.4-1-8.7-1.1-14-4.2c0,0,1.9,3.7,5.5,6.2c0,0-2.5,0.7-7.9-2c-5.5-2.7-14.8-5.2-31.4-0.2
			c0,0,11.7,0,20.4,5.4c7.5,4.6,15.3,7.2,21.5,7.1c-2.1-1.2-3.1-2-4.1-3.8c0,0,7.9,2.2,14.3,0.5c0,0-7.2-3.2-8.2-4.4
			c0,0,5.9-0.4,12.2-1.3C150.4,104.8,144,102,142.2,101.6z"/>
		<path d="M111.5,72.4C86.2,70.2,76,88.5,76,88.5c6.6-4.7,20.4-4.8,20.4-4.8c-5.4,1.7-10,8.5-13.4,12.4c-9.1,10.4-24.6,12-24.6,12
			c19.4,2.2,25.6-4.7,38.5-12c12.9-7.3,27.1,0,27.1,0l5.5-3.2c-6.8-2.4-13-5.4-16.6-12.1c-4-1.6-14-0.7-14-0.7
			C104.3,73.2,111.5,72.4,111.5,72.4z"/>
		<path d="M128.6,125.8c0,0,9.7-3.5,12.2-7.4c0,0-14.8-1.1-26.9-8.6c-12.1-7.5-25.3-6.5-36.3,1.2c0,0-6.7,3.7-13.1,9.7
			c0,0,19.6-5.6,31.7,0.4c12.2,6,17.8,20.8,39.7,18.3c0,0-6.1,8.8-18.1,13.8c0,0,13.7,0.1,19.6-6.7c0,0-0.5,6,1,10.9
			c0,0,0.1-12.9,2.1-20.4c2-7.4,2.6-9.6,2.6-9.6S132.6,128.1,128.6,125.8z"/>
		<path d="M171.9,181.5c0,0-26.6-13.6-26.3-31.2c0,0-5.2,5-5.6,18.3c0,0-5.8-10-5.6-16c0,0-12.7,7.6-10.8,25.1
			c1.3,12.4,7.5,18.7,9,19.8c0,0-4.5-11.4-1.5-20.5c0,0-2.8,14.7,11,22.9c13.8,8.2,20.5,6.9,29.6,7.1c0,0-10.3-6.6-17.1-15.3
			l-1.2-1.9c5.1,4.5,18.4,7.1,18.4,7.1c10.7,2.5,14.7,5.8,18.7,12.5C188.9,201.9,185.3,191.5,171.9,181.5z"/>
		<path d="M207.1,229.1c-4.7-2.5-13.3-11.2-17.7-17.3c-6.2-8.4-13.7-9.9-20.4-12.2c0.8,0.8,4.9,4.1,12,10.3c0,0-1.9,0.1-14.4,0.9
			c-15.8,0.9-29.6-6.9-31.5-12c0,0,0.8,4.6,1.2,5.8c0,0-15.3-5.4-18.6-26.4c0,0-0.2,0.5-0.5,1.3c-1.8,5.2-7.4,24.9,6.6,38.6
			c0,0-1.9-7.4-1.1-11.7c0,0,6.7,16.4,25.5,17.9c18.7,1.4,31.5-1.1,44.1,9.2c7.1,5.8,16,7.2,23.1,6.4c-11.1-3.9-17.6-11.1-17.6-11.1
			S200.8,228.6,207.1,229.1z"/>
		<path d="M110.6,193c2.4-16.2,11.6-31.7,15.8-38c0,0-7.8,3.3-11,9.3C110.8,174.4,110.6,184.5,110.6,193z"/>
		<path d="M105.4,152.3c7-0.7,12.3,0.1,22.7-9.3c0,0-14.2,0.2-23.3-8.8c-13.3-13.2-27.6-12.4-41.5-7.8c0,0,14.3,0.8,20.5,6.1
			c0,0-13.1-0.5-25.4,9.7c0,0,16.3-3.4,23.9-1.3c6.7,1.9,9.1,3.4,13.6,7.2c0,0-15.9-4.8-31.5,4.7c-5.3,3.3-11.5,9.7-11.5,9.7
			s8.7-4.6,23.3-3.9c6.3,0.3,20.1,3.7,40.6-3.2C111,154.5,107.9,154.2,105.4,152.3z"/>
		<path d="M84.9,170.4c-7.3,10.1-6.5,13.6-15.6,19.2c0,0,10.6-0.5,18.3-7.5c6.7-6,11.3-16.3,21.3-21.9
			C103.7,161.4,91.4,161.4,84.9,170.4z"/>
		<path d="M114.3,159.7c0,0-12.8,5.8-24.5,28.7c-10.5,20.6-16.4,22.2-21.6,26.3C109.1,202.9,109.1,167.8,114.3,159.7z"/>
		<path d="M69.3,227.1c13.6,3.6,27.1-7.5,31.7-17.6c3-6.6,5.8-18.4,5.8-18.4C91.7,208.5,81.9,226.9,69.3,227.1z"/>
		<path d="M124.9,238.4c-11.6-6.5-17.4-19.3-13.2-44.1c0.1-0.4-25.3,47.2,8.1,55.3c8.4,2,23.4,7.6,25.2,11.4
			C144,257.2,140.8,247.2,124.9,238.4z"/>
		<path d="M151.6,229.7c-15.6-4-20.5-7.4-22.9-11l1.9,9.5c0,0-9.3-3.5-13.8-12.5c0,0,1.9,16.8,21.8,23.1
			c19.9,6.3,27.8,8.7,37.9,15.8C176.5,254.6,172.5,235.1,151.6,229.7z"/>
		<path d="M198.3,243.4c-7.2-5.5-10.9-13.8-33.8-14c6.9,4.1,8.9,6.7,20.6,21.3c11.1,11.1,39.1,7.6,46.7,0.9
			C231.9,251.7,212.5,254.2,198.3,243.4z"/>
		<path d="M72.3,179.8c7.7-12,11.8-14.8,16.9-17.4c-6.3,0.4-11.6-1.6-21,5.6c-10.6,9.6-7.8,14.9-22.2,20.2
			C46,188.2,66.1,189.5,72.3,179.8z"/>
		<path d="M83.8,188.2c0,0-7.4,4.9-14.5,6.1c-5.4,0.9-6.9,11-21.8,17.6C47.5,211.9,74.7,212.6,83.8,188.2z"/>
		<path d="M299.5,137.3c0,0-45.5-18.4-49.7-23.5c0,0-3.9-3-7.8-11.7c-5.3-15.6-13.1-12.7-14.6-19.2c-1.1,3,0.8,7,0.8,7
			c-8.1-12.5-10.2-9.8-18.8-17.4c-0.7,4.3,0,5.7,0,5.7c-8.3-9.9-12.1-8.7-15.3-12.9c0.9,2.7,0.9,8.6,4.7,10.8c0,0-8.2-3-13-7.6
			c-5.1-4.4-17.6-4.2-20.6-9.1c0.9,3.2,1.8,8.9,7.8,11.9c-9.5,0.4-17.5-10.1-24.2-8.9c-13,0.7-20.7-3.6-20.5-3.5
			c1.3,5,8.5,9.4,13.2,13.2c0,0-5.1-0.5-14.5-4.6c-6.7-2.9-17.6,0.1-20.9,1.8c0,0,11.8-0.9,19.3,4.4c-1.3,0-10.3-0.9-19.3,4.2
			c0,0,8.8-1.7,18.4,1.2c7.5,2.2,15.6,5.9,24.9,6c-5.2-4.3-6.7-7.6-6.5-7.5c21.5,10,23.4,10.2,37.5,12.6
			c-2.5,2.3-16.6,10.3-36.6,8.8c0,0,10.3,4,16,5.1c0,0-4.6,2.2-12.3,3.8c0,0,6.2,1.5,10.4,0.6c0,0-8.8,6.4-17.5,5.6
			c1.7,0.6,3.4,1.6,7.1,1.4c0,0-0.7,4.6-8.6,9.1c0,0,6.1,0.3,9.9-0.5c-2.3,3.7-6.8,15.5-5.5,24.3c0,0,1.2-8.4,7.1-11.2
			c0,0-5,8.1,2.5,22.2c0,0,4.3,7.6,17.5,16.5c-3.6-11.4-1-14.9-1-14.9c0.7,9.8,7.7,19.1,10.5,22.6c1.5,1.9,4.7,5.3,5.9,8.6
			c0-7.6,1.5-11.2,1.5-11.2c3,30.8,13.9,44.1,30,43.6c0,0-10.4-2-13.6-20c0.3,0.7,1.8,2.2,9,4c0,0-11.6-8.8-7.5-24.8
			c0,0,0.2,5.8,7,10.2c-0.7-0.1-4-10.7-0.1-14.5c3-3.9,7.6-4.3,9.4-9.1c0,0,0.9,4.3-1.5,7.4c1.6-1.7,4.7-0.9,9.3-8.2
			c4.8-5.6,18.3-6.7,25.7-4.7c7.4,2,21.2,7,24.7,5.2c3.3-1.9,4.3-5.9,8.1-9.6c3.7-3.5,15.3-13.4,15.5-17.5
			C303,138.8,299.5,137.3,299.5,137.3z M230.1,117.2c-7,0.5-12.6-5.6-10.9-12.1c-0.1,1,5.1,4.2,11.2,6.7c9.1,3.5,10.2,5.2,16.2,5.7
			C243.4,117.3,234.7,116.8,230.1,117.2z"/>
		<path d="M134.9,91.7c0,0-0.7,1.7-4.3,3.5c1.6,0.1,5.8,1,13.2,1.1c6.5,0.1,17.3,0.6,29.6-4.9c0,0-5.1-0.8-11.1-2.5
			c-4.6-1.3-9.3-3.7-10.7-4.6l2.8,3.4c-23.7-0.1-27.9-6-37.5-7.5C116.8,80.1,122.5,90.6,134.9,91.7z"/>
	</g>
</g>
</svg>
